<svg width="42" height="34" viewBox="0 0 42 34" fill="none" xmlns="http://www.w3.org/2000/svg">
<g clip-path="url(#clip0_1_892)">
<path d="M33.5316 14.367C33.0313 16.2341 34.1394 18.1533 36.0065 18.6536C37.8736 19.1539 39.7928 18.0458 40.2931 16.1787C40.7934 14.3116 39.6854 12.3924 37.8182 11.8921C35.9511 11.3918 34.0319 12.4998 33.5316 14.367Z" fill="#FFFDE9"/>
<path d="M16.1264 25.2323C15.769 26.566 16.5605 27.9368 17.8941 28.2942C19.2278 28.6515 20.5986 27.8601 20.956 26.5264C21.3133 25.1927 20.5219 23.8219 19.1882 23.4645C17.8545 23.1072 16.4837 23.8986 16.1264 25.2323Z" fill="#D6D5D9"/>
<path d="M10.6774 3.06684C10.463 3.86704 10.9378 4.68955 11.738 4.90396C12.5382 5.11837 13.3607 4.6435 13.5752 3.8433C13.7896 3.0431 13.3147 2.22059 12.5145 2.00618C11.7143 1.79177 10.8918 2.26664 10.6774 3.06684Z" fill="#FFFDE9"/>
<path d="M0.965091 18.064C0.822149 18.5975 1.13873 19.1458 1.6722 19.2888C2.20566 19.4317 2.754 19.1151 2.89694 18.5816C3.03988 18.0482 2.7233 17.4998 2.18984 17.3569C1.65637 17.214 1.10803 17.5305 0.965091 18.064Z" fill="#FFFDE9"/>
</g>
<defs>
<clipPath id="clip0_1_892">
<rect width="42" height="33" fill="white" transform="translate(0 0.203125)"/>
</clipPath>
</defs>
</svg>
