<svg width="64" height="52" viewBox="0 0 64 52" fill="none" xmlns="http://www.w3.org/2000/svg">
<path d="M13.2011 13.4289C15.5442 11.0858 15.5442 7.28678 13.2011 4.94364C10.8579 2.60049 7.05893 2.60049 4.71578 4.94364C2.37264 7.28678 2.37264 11.0858 4.71578 13.4289C7.05893 15.7721 10.8579 15.7721 13.2011 13.4289Z" fill="#FFFDE9"/>
<path d="M47.1421 12.0147C48.7042 10.4526 48.7042 7.91995 47.1421 6.35785C45.58 4.79575 43.0474 4.79576 41.4853 6.35785C39.9232 7.91995 39.9232 10.4526 41.4853 12.0147C43.0474 13.5768 45.58 13.5768 47.1421 12.0147Z" fill="#D6D5D9"/>
<path d="M36.8891 49.1376C37.8654 48.1613 37.8654 46.5784 36.8891 45.6021C35.9128 44.6258 34.3299 44.6258 33.3536 45.6021C32.3773 46.5784 32.3773 48.1613 33.3536 49.1376C34.3299 50.114 35.9128 50.114 36.8891 49.1376Z" fill="#FFFDE9"/>
<path d="M62.6986 34.6422C63.0891 34.2516 63.0891 33.6185 62.6986 33.228C62.3081 32.8374 61.6749 32.8374 61.2844 33.228C60.8939 33.6185 60.8939 34.2516 61.2844 34.6422C61.6749 35.0327 62.3081 35.0327 62.6986 34.6422Z" fill="#FFFDE9"/>
</svg>
