<svg width="100" height="112" viewBox="0 0 100 112" fill="none" xmlns="http://www.w3.org/2000/svg">
<g clip-path="url(#clip0_1_1177)">
<path d="M5.41248 71.8973C5.98048 72.8796 6.76299 73.721 7.70159 74.3586C8.6402 74.9962 9.71068 75.4136 10.8332 75.5797C14.0726 76.1736 17.404 76.0354 20.5831 75.175C23.7177 73.6721 27.2644 73.2591 30.6605 74.0016C30.6317 75.3101 30.7785 76.6167 31.0971 77.8862C31.3752 79.0668 31.8289 80.199 32.4431 81.2448C33.6876 81.0446 34.8275 80.8692 35.8629 80.7188C38.2058 80.3634 40.0733 80.1206 41.4655 79.9904C42.8893 79.9036 44.2957 79.6315 45.6492 79.1811C46.1297 78.9474 46.6464 78.7969 47.1772 78.736C47.5054 77.874 47.7372 76.9783 47.8684 76.0653C48.013 75.4243 48.1223 74.7759 48.1959 74.1229L48.0503 71.8164C47.0451 67.8172 45.6813 63.9167 43.9757 60.1624C43.5615 60.5651 43.1242 60.9435 42.666 61.2954C39.1495 60.914 33.9107 60.9545 26.9497 61.4168C19.9911 61.8832 15.1646 62.5576 12.4703 63.44C9.80068 64.3263 7.95741 65.6616 6.94045 67.4461C6.94538 67.4592 6.94538 67.4735 6.94045 67.4866C6.93293 67.5036 6.92019 67.5178 6.90407 67.5271C6.82005 67.6923 6.73516 67.8542 6.64941 68.0127C6.06348 69.2457 5.64738 70.5525 5.41248 71.8973Z" fill="#0A4D2E"/>
<path d="M11.6834 74.8817C10.516 74.6579 9.41741 74.1633 8.47595 73.4377C7.53448 72.712 6.77643 71.7756 6.26276 70.7036C6.15684 71.5138 6.07196 72.3556 6.0081 73.2288C5.84045 76.2628 6.42253 78.6809 7.75436 80.4831C8.56957 81.6247 9.65291 82.5483 10.909 83.1728C12.1651 83.7973 13.5555 84.1034 14.9577 84.0643C17.7226 84.0642 21.9306 83.5133 27.5817 82.4114C29.6764 81.9954 31.5803 81.6281 33.2934 81.3095C32.6734 80.1064 32.2205 78.8243 31.9473 77.4987C31.6282 76.0519 31.4816 74.5724 31.5108 73.0911C28.1038 72.2501 24.505 72.7256 21.4334 74.4225C18.2746 75.3978 14.92 75.5558 11.6834 74.8817Z" fill="#11802D"/>
<path d="M4.80612 62.9665C1.60618 66.19 0.00544393 70.6284 0.00390625 76.2818C0.00390625 79.4105 1.38636 82.1754 4.15127 84.5765C7.37701 87.3899 11.7427 88.7967 17.2482 88.7967C17.9664 88.8024 18.6839 88.7537 19.3947 88.6511C23.0812 88.0933 26.3433 87.6082 29.181 87.1959C34.6138 86.4198 39.8768 85.9226 44.9701 85.7043C47.4683 85.5831 49.1054 85.195 49.8814 84.5401C50.328 84.1839 50.7095 83.7531 51.0093 83.2668C51.1672 82.8869 51.2416 82.4775 51.2275 82.0663C51.1754 81.4518 50.962 80.862 50.6091 80.3564C50.026 79.4054 49.1428 78.6758 48.0989 78.2827C47.572 78.3366 47.0566 78.4716 46.5709 78.6829C45.2098 79.0892 43.8055 79.3335 42.3871 79.4105C40.995 79.5275 39.1275 79.7458 36.7845 80.0653C35.7491 80.2006 34.6092 80.3583 33.3648 80.5383C31.6517 80.7908 29.7478 81.0818 27.6531 81.4114C23.4805 82.1402 19.2623 82.5778 15.0291 82.7211C13.6962 82.7828 12.3653 82.5618 11.1239 82.0728C9.88242 81.5837 8.75845 80.8376 7.82573 79.8834C6.49389 78.4554 5.9118 76.5394 6.07947 74.1353C6.14333 73.4433 6.22822 72.7764 6.33414 72.1344C6.5725 70.9158 6.9893 69.7389 7.57107 68.6419C7.65683 68.4994 7.74171 68.3539 7.82573 68.2053C7.84141 68.1974 7.85415 68.1846 7.86211 68.1689C7.86456 68.1632 7.86582 68.157 7.86582 68.1508C7.86582 68.1445 7.86456 68.1383 7.86211 68.1326C8.87906 66.5282 10.7223 65.3277 13.3919 64.5309C16.0863 63.7375 20.9127 63.1312 27.8713 62.7119C34.8324 62.2963 40.0712 62.2599 43.5877 62.6027C44.0432 62.2883 44.4805 61.9482 44.8974 61.5841C46.3996 59.4036 45.6599 58.0575 42.6782 57.5459C39.6995 57.0297 33.4421 57.0054 23.9059 57.4731C14.3696 57.9407 8.00305 59.7719 4.80612 62.9665Z" fill="#052519"/>
<path d="M99.8406 43.2091C99.4119 39.1918 98.6699 35.2142 97.6213 31.3127C95.9964 24.6914 93.8499 19.6952 91.182 16.3239C88.3212 12.0795 85.338 8.93869 82.2324 6.90139C79.1519 4.88834 76.6537 4.05159 74.7381 4.39114C69.2082 5.33707 65.5217 6.574 63.6785 8.10194C63.1786 8.45268 62.7978 8.94769 62.587 9.52074C62.5163 9.71924 62.5037 9.93379 62.5507 10.1392C62.7026 11.4879 62.9953 12.8169 63.4238 14.1047C64.3939 17.4274 65.2792 20.835 66.0796 24.3276C66.3706 25.5888 67.4984 29.8574 69.4629 37.1335C71.2819 44.4096 72.1914 49.6484 72.1915 52.8498C72.1319 56.2209 71.8768 59.5857 71.4275 62.9272C71.3547 65.9589 72.3612 67.8022 74.4471 68.457C76.3563 68.9093 78.3067 69.1653 80.2679 69.221C82.2809 69.3665 84.0757 69.4393 85.6522 69.4393C88.8293 69.4419 91.6913 67.5986 94.238 63.9095C96.8092 60.2138 98.3129 57.3762 98.7492 55.3965C99.2093 53.4189 99.561 51.5635 99.8042 49.8303C100.053 47.6308 100.065 45.411 99.8406 43.209M83.0692 15.3416C84.5881 17.2111 85.9624 19.1935 87.1802 21.2716C88.8953 24.108 90.2402 27.1523 91.182 30.3303C91.3275 30.8639 91.8005 32.3191 92.6009 34.696C93.3637 38.2333 93.7177 41.8465 93.6559 45.4646C93.6241 48.7654 93.0842 52.0417 92.0552 55.1782C91.5438 56.9573 90.745 58.6409 89.6905 60.1623L88.0897 61.8722C87.0339 62.7068 85.7248 63.156 84.3789 63.1455C82.1435 62.9052 79.8968 62.7838 77.6485 62.7817C78.0366 55.2146 78.1457 50.7155 77.976 49.2845C77.4054 47.0795 76.956 44.8448 76.6299 42.5905C76.2418 39.8741 76.0235 38.3583 75.975 38.043C75.9508 37.946 75.7204 37.1577 75.2838 35.6783C71.2819 22.6299 69.281 14.7474 69.281 12.031C69.281 11.9074 69.4508 11.7498 69.7904 11.558C70.5417 11.185 71.32 10.8688 72.1187 10.6122C72.4088 10.5112 72.6877 10.4142 72.9555 10.3211C74.6096 9.81765 76.3814 9.85589 78.0123 10.4303C78.7399 10.7213 80.4255 12.3584 83.0692 15.3416H83.0692Z" fill="#052519"/>
<path d="M88.9264 33.8956C88.8537 33.653 88.7809 33.3862 88.7082 33.0952C87.9359 29.9529 86.8259 26.9035 85.3975 24.0001C84.1367 21.3812 82.425 19.0045 80.3407 16.9787C80.3401 16.928 80.3277 16.8781 80.3043 16.8331C80.2999 16.7946 80.2875 16.7575 80.2679 16.724C79.9756 16.286 79.6338 15.8831 79.2492 15.5234C77.503 13.947 75.684 12.4311 73.7922 10.9759C73.521 10.761 73.2421 10.5428 72.9554 10.321C72.6877 10.4141 72.4088 10.5111 72.1187 10.6121C71.32 10.8688 70.5417 11.1849 69.7903 11.558C69.4508 11.7497 69.281 11.9074 69.281 12.0309C69.281 14.7474 71.2819 22.6298 75.2838 35.6782C75.7203 37.1577 75.9508 37.9459 75.975 38.0429C76.0235 38.3582 76.2418 39.8741 76.6299 42.5905C76.956 44.8447 77.4053 47.0794 77.9759 49.2845C78.1458 50.7154 78.0366 55.2145 77.6485 62.7816C79.8968 62.7837 82.1434 62.9052 84.3789 63.1454C85.7247 63.156 87.0338 62.7067 88.0897 61.8721L89.6904 60.1622C88.7252 59.5869 87.7293 59.0647 86.7072 58.5979C86.78 58.4524 86.8528 58.319 86.9255 58.1977C86.9724 58.105 87.009 58.0074 87.0347 57.9066C87.0604 57.8243 87.0726 57.7383 87.071 57.652C87.4026 57.3751 87.6223 56.9873 87.6895 56.5606C87.7628 56.001 87.9353 55.4589 88.1988 54.9598C88.4855 54.3977 88.6233 53.7714 88.599 53.1408C88.6729 52.9667 88.7219 52.7829 88.7445 52.5951C88.7688 52.4496 88.793 52.3162 88.8173 52.1949C88.843 52.0942 88.8796 51.9966 88.9264 51.9039C88.9264 51.8796 88.9264 51.8432 88.9264 51.7947C88.9264 51.7462 88.9264 51.6977 88.9264 51.6492C88.975 51.4552 89.0235 51.2733 89.072 51.1035C89.1205 50.8852 89.1811 50.6548 89.2539 50.4123C89.3266 50.2425 89.3994 50.0606 89.4721 49.8666C89.4964 49.5517 89.4964 49.2355 89.4721 48.9207C89.446 48.5052 89.4828 48.0882 89.5813 47.6837C89.6774 47.3284 89.7143 46.9597 89.6904 46.5923C89.8627 46.0146 89.9365 45.4119 89.9087 44.8097C89.8845 44.0336 89.8845 43.2696 89.9087 42.5177C89.9346 41.6874 89.8613 40.8569 89.6904 40.0439C89.6905 39.7771 89.6905 39.5103 89.6904 39.2435C89.6914 38.9629 89.667 38.6829 89.6177 38.4067C89.5953 38.2223 89.5588 38.0399 89.5085 37.861C89.5086 37.8125 89.5086 37.764 89.5085 37.7155C89.5086 37.5458 89.5086 37.3639 89.5085 37.1698C89.5096 37.0355 89.4974 36.9015 89.4721 36.7696C89.4721 36.6726 89.4721 36.5877 89.4721 36.515C89.4005 36.3245 89.3398 36.1302 89.2902 35.9329C89.2395 35.7078 89.1664 35.4885 89.072 35.278C89.0274 35.147 88.9909 35.0133 88.9628 34.8778C88.9629 34.7808 88.9629 34.6838 88.9628 34.5868C88.9644 34.5005 88.9521 34.4145 88.9264 34.3321C88.9264 34.2351 88.9264 34.1381 88.9264 34.0411C88.9264 33.9926 88.9264 33.9441 88.9264 33.8956Z" fill="#0A4D2E"/>
<path d="M87.1802 21.2717C85.9624 19.1936 84.5881 17.2112 83.0692 15.3417C80.4256 12.3585 78.7399 10.7214 78.0123 10.4304C76.3814 9.85601 74.6096 9.81777 72.9554 10.3212C73.2421 10.5429 73.521 10.7612 73.7922 10.9761C75.684 12.4313 77.503 13.9471 79.2493 15.5236C79.6338 15.8833 79.9757 16.2862 80.2679 16.7242C80.2875 16.7576 80.2999 16.7948 80.3043 16.8333C80.3277 16.8783 80.3402 16.9282 80.3407 16.9788C82.425 19.0047 84.1367 21.3814 85.3975 24.0003C86.8259 26.9037 87.9359 29.9531 88.7082 33.0954C88.7809 33.3864 88.8537 33.6532 88.9264 33.8957C88.9264 33.9443 88.9264 33.9928 88.9264 34.0413C88.9264 34.1383 88.9264 34.2353 88.9264 34.3323C88.9521 34.4147 88.9644 34.5007 88.9628 34.587C88.9629 34.684 88.9629 34.781 88.9628 34.878C88.9909 35.0135 89.0274 35.1472 89.072 35.2782C89.1664 35.4886 89.2395 35.708 89.2903 35.9331C89.3398 36.1304 89.4005 36.3247 89.4722 36.5151C89.4721 36.5879 89.4721 36.6728 89.4722 36.7698C89.4974 36.9017 89.5096 37.0357 89.5085 37.17C89.5086 37.3641 89.5086 37.546 89.5085 37.7157C89.5086 37.7642 89.5086 37.8127 89.5085 37.8612C89.5588 38.0401 89.5953 38.2225 89.6177 38.4069C89.667 38.6831 89.6914 38.9631 89.6904 39.2437C89.6905 39.5105 89.6905 39.7772 89.6904 40.044C89.8613 40.857 89.9346 41.6875 89.9087 42.5179C89.8845 43.2698 89.8845 44.0338 89.9087 44.8099C89.9365 45.4121 89.8627 46.0148 89.6904 46.5925C89.7143 46.9599 89.6775 47.3286 89.5813 47.6839C89.4828 48.0884 89.446 48.5054 89.4722 48.9209C89.4964 49.2357 89.4964 49.5519 89.4722 49.8668C89.3994 50.0608 89.3266 50.2427 89.2539 50.4125C89.1811 50.655 89.1205 50.8854 89.072 51.1037C89.0235 51.2735 88.975 51.4554 88.9264 51.6494C88.9264 51.6979 88.9264 51.7464 88.9264 51.7949C88.9264 51.8434 88.9264 51.8798 88.9264 51.9041C88.8796 51.9968 88.843 52.0944 88.8173 52.1951C88.7931 52.3164 88.7688 52.4498 88.7445 52.5953C88.7219 52.7831 88.673 52.9668 88.599 53.141C88.6233 53.7716 88.4855 54.3978 88.1988 54.96C87.9353 55.4591 87.7628 56.0012 87.6895 56.5608C87.6223 56.9875 87.4026 57.3753 87.0711 57.6522C87.0727 57.7385 87.0604 57.8244 87.0347 57.9068C87.009 58.0075 86.9724 58.1051 86.9255 58.1979C86.8528 58.3191 86.78 58.4525 86.7072 58.5981C87.7293 59.0649 88.7252 59.5871 89.6904 60.1624C90.745 58.641 91.5437 56.9574 92.0552 55.1783C93.0842 52.0418 93.6241 48.7656 93.6559 45.4647C93.7177 41.8466 93.3637 38.2334 92.6009 34.6961C91.8005 32.3193 91.3275 30.864 91.182 30.3305C90.2402 27.1525 88.8953 24.1081 87.1802 21.2717Z" fill="#11802D"/>
<path d="M85.8705 59.8348C86.2827 57.4579 86.4889 53.3954 86.489 47.6473C86.4702 41.4221 85.4381 35.2415 83.433 29.348C81.0083 21.8612 76.9015 15.029 71.4275 9.37516C70.3418 8.17882 69.1617 7.0717 67.8986 6.0645C67.2664 5.65438 66.4054 5.07229 65.3156 4.31824C63.5008 3.24758 61.573 2.38129 59.5674 1.73523C56.4245 0.668144 53.136 0.0914254 49.8175 0.0253515C45.5845 -0.068957 41.3593 0.43317 37.2662 1.51695C32.6629 2.6589 29.0612 4.44154 26.4613 6.86487C23.6982 9.54246 21.3883 12.651 19.6217 16.0691C17.6562 19.8064 16.674 23.2261 16.6749 26.3284C16.6749 29.5541 17.9604 34.7929 20.5313 42.0447C23.0778 49.2966 24.3512 53.9654 24.3512 56.0512C24.3512 61.3385 24.7635 65.3282 25.5881 68.0204C26.7766 71.9494 29.5536 77.0063 33.9193 83.191C33.2874 83.1604 32.656 83.2594 32.0638 83.482L41.5591 91.5585C52.3763 90.9037 60.3678 89.3393 65.5338 86.8654C71.8883 83.8338 77.0786 78.498 81.1047 70.858C83.503 67.5893 85.1322 63.8212 85.8705 59.8348ZM29.7355 11.0122C30.0976 10.6013 30.5284 10.2566 31.0088 9.99359C31.0237 9.98055 31.041 9.97062 31.0597 9.96437C31.0785 9.95812 31.0983 9.95569 31.118 9.95721C32.5974 9.13259 34.1012 8.3686 35.6291 7.66524C36.7431 7.14031 37.9155 6.74952 39.1216 6.50107H39.5218C41.0693 6.19523 42.6386 6.01276 44.2149 5.95536H45.3063C48.4999 5.90007 51.6942 6.02152 54.8744 6.31917C56.6003 6.52567 58.2826 7.00456 59.8585 7.738C61.5158 8.59226 63.0564 9.65601 64.4424 10.9031C66.1132 12.3362 67.0227 13.1124 67.171 13.2314C69.0627 14.7837 71.6579 18.9674 74.9564 25.7827C78.3034 32.6707 79.9769 37.3881 79.9769 39.9347C80.0009 40.8505 80.0982 41.7629 80.2679 42.6632C80.4636 43.8035 80.7304 46.3138 81.0683 50.194C81.3774 54.3336 80.9588 58.4954 79.8313 62.4905C79.2997 64.4163 78.4908 66.2546 77.4302 67.9476C77.2294 68.3026 77.0111 68.6542 76.7754 69.0026L70.1178 77.1882C70.0744 77.2416 70.0256 77.2904 69.9722 77.3338C69.9168 77.3994 69.856 77.4602 69.7903 77.5157C69.5932 77.4941 68.2714 78.1004 65.8249 79.3347C65.245 79.6266 64.6023 79.954 63.8967 80.317C58.3417 83.153 53.4424 84.6204 49.199 84.719C45.8763 83.482 44.0209 82.7787 43.6328 82.6089C42.2576 82.0593 40.9512 81.3512 39.7401 80.4989C38.4092 79.5736 37.2098 78.4721 36.1748 77.2246C35.9191 76.9313 35.6887 76.6645 35.4836 76.4242C35.2558 76.1414 35.0618 75.8867 34.9015 75.6603C34.7703 75.4978 34.6489 75.3277 34.5377 75.1509C34.491 75.0721 33.9696 74.0898 32.9734 72.2041C31.8579 69.9383 31.027 67.5433 30.4995 65.0736C29.8611 62.3034 29.5076 59.4753 29.4445 56.6333C29.4235 53.9556 29.2291 51.2821 28.8624 48.6296C28.062 43.0513 26.7644 38.5401 24.9697 35.0961C23.5216 32.2593 22.785 29.113 22.8232 25.9282C22.8063 22.2817 23.8697 18.7119 25.8792 15.6689C26.4928 14.7353 27.1737 13.8477 27.9165 13.0132C27.9685 12.9554 28.0171 12.8947 28.062 12.8313C28.2209 12.6705 28.3786 12.5128 28.5349 12.3583C28.6076 12.2833 28.6804 12.2105 28.7532 12.14C28.8489 11.9962 28.9586 11.8621 29.0807 11.7398C29.1206 11.7214 29.1574 11.6969 29.1898 11.6671C29.3596 11.4488 29.5415 11.2305 29.7355 11.0122ZM48.7625 84.719C48.1896 84.6127 47.6448 84.3898 47.1617 84.0641L49.1626 84.719H48.7625Z" fill="#052519"/>
<path d="M47.1617 84.0641C47.6447 84.3898 48.1896 84.6127 48.7624 84.719H49.1626L47.1617 84.0641ZM34.8651 9.66616C34.4528 10.03 34.0526 10.3938 33.6645 10.7576C33.325 11.0729 32.9854 11.4003 32.6459 11.7398C32.6353 11.7489 32.6266 11.76 32.6203 11.7725C32.6141 11.785 32.6104 11.7987 32.6095 11.8126L32.5367 11.9581C32.5104 12.0336 32.459 12.0977 32.3912 12.14L32.3185 12.2128C32.3166 12.2912 32.2913 12.3672 32.2457 12.4311C31.9824 12.8122 31.7741 13.2286 31.6272 13.668C31.5779 13.7436 31.5525 13.8324 31.5545 13.9227C31.5244 14.0181 31.5001 14.1153 31.4817 14.2137C31.4575 14.3108 31.4332 14.4199 31.4089 14.5411V14.6139C31.3604 14.8807 31.3241 15.1475 31.2998 15.4143C31.2998 15.462 31.2998 15.5105 31.2998 15.5598C31.3116 15.6087 31.3237 15.6572 31.3362 15.7053C31.483 16.2182 31.5924 16.741 31.6636 17.2697C31.9255 17.8807 32.1325 18.5137 32.2821 19.1615C32.3613 19.4916 32.4462 19.819 32.5367 20.1437C32.5907 20.2682 32.6514 20.3897 32.7186 20.5075C33.2299 21.7979 34.0114 22.9639 35.0106 23.9273C35.8764 24.6876 36.4968 25.6879 36.7932 26.8013C36.959 26.9661 37.1055 27.1492 37.2298 27.347C37.2835 27.4289 37.3321 27.5139 37.3753 27.6017L37.5209 27.8928C39.8379 30.8502 41.7016 34.1362 43.0507 37.6427C44.5456 41.5657 45.7138 45.6056 46.5432 49.721C46.6666 49.9713 46.7407 50.2431 46.7615 50.5214C46.7857 50.8124 46.8221 51.0913 46.8706 51.3581C46.8956 51.5389 46.9078 51.7213 46.907 51.9038C46.9555 52.0736 47.0162 52.2555 47.0889 52.4495C47.1374 52.6193 47.1981 52.8012 47.2708 52.9952C47.3436 53.262 47.4285 53.5288 47.5255 53.7956C47.6213 54.4339 47.6699 55.0784 47.671 55.7238C47.7194 56.6455 47.7316 57.555 47.7074 58.4523V58.707C47.7543 58.7997 47.7909 58.8973 47.8165 58.998C47.8408 59.095 47.865 59.1799 47.8893 59.2527C47.8642 59.5337 47.8888 59.817 47.962 60.0894C48.0106 60.3562 48.0591 60.623 48.1076 60.8898C48.1561 61.0838 48.2046 61.2657 48.2531 61.4355C48.3013 62.1854 48.4231 62.9287 48.6169 63.6547C48.888 64.7078 49.3173 65.7136 49.8902 66.6379C52.8894 70.4864 55.9939 72.7905 59.2036 73.5502C62.6258 74.3076 66.1785 74.2452 69.572 73.3683C72.4105 72.9697 75.0299 71.1628 77.4302 67.9476C78.4908 66.2546 79.2996 64.4163 79.8313 62.4905C80.9587 58.4954 81.3773 54.3336 81.0682 50.194C80.7303 46.3137 80.4635 43.8035 80.2679 42.6632C80.0981 41.7629 80.0008 40.8505 79.9768 39.9347C79.9768 37.3881 78.3033 32.6708 74.9563 25.7827C71.6578 18.9674 69.0627 14.7837 67.1709 13.2314C67.0227 13.1123 66.1132 12.3362 64.4424 10.9031C63.0563 9.656 61.5157 8.59225 59.8584 7.738C58.2825 7.00456 56.6003 6.52567 54.8743 6.31916C51.6941 6.02152 48.4999 5.90007 45.3063 5.95536H44.2149V5.99174C44.1749 6.01019 44.1381 6.03474 44.1057 6.0645L44.033 6.13726C43.993 6.1557 43.9562 6.18025 43.9238 6.21002C42.4696 6.2304 41.0251 6.45075 39.6309 6.86487C38.7344 7.15555 37.8592 7.50807 37.0115 7.9199C36.2596 8.47775 35.5441 9.05983 34.8651 9.66616H34.8651Z" fill="#11802D"/>
<path d="M31.0088 9.99355C30.5284 10.2566 30.0975 10.6013 29.7355 11.0122C29.5414 11.2305 29.3595 11.4488 29.1898 11.667C29.1574 11.6968 29.1206 11.7214 29.0806 11.7398C28.9585 11.8621 28.8489 11.9961 28.7532 12.14C28.6803 12.2105 28.6076 12.2832 28.5349 12.3583C28.3785 12.5128 28.2209 12.6705 28.062 12.8312C28.017 12.8946 27.9685 12.9554 27.9165 13.0131C27.1737 13.8476 26.4927 14.7353 25.8792 15.6689C23.8697 18.7118 22.8063 22.2817 22.8232 25.9282C22.7849 29.1129 23.5216 32.2593 24.9696 35.096C26.7644 38.5401 28.062 43.0512 28.8623 48.6296C29.2291 51.2821 29.4235 53.9556 29.4444 56.6333C29.5076 59.4753 29.8611 62.3034 30.4995 65.0735C31.027 67.5433 31.8579 69.9383 32.9733 72.2041C33.9695 74.0898 34.491 75.072 34.5377 75.1509C34.6488 75.3277 34.7703 75.4977 34.9015 75.6602C35.0617 75.8867 35.2557 76.1413 35.4836 76.4242C35.6887 76.6645 35.9191 76.9313 36.1748 77.2246C37.2098 78.4721 38.4092 79.5735 39.7401 80.4988C40.9512 81.3512 42.2576 82.0593 43.6328 82.6089C44.0209 82.7787 45.8763 83.4821 49.199 84.7189C53.4424 84.6203 58.3416 83.153 63.8967 80.3169C64.6022 79.954 65.245 79.6265 65.8249 79.3346C68.2714 78.1004 69.5932 77.4941 69.7903 77.5156C69.856 77.4602 69.9168 77.3994 69.9722 77.3337C70.0256 77.2903 70.0744 77.2416 70.1178 77.1882L76.7754 69.0026C77.0111 68.6543 77.2293 68.3026 77.4302 67.9476C75.03 71.1627 72.4106 72.9696 69.572 73.3682C66.1785 74.2452 62.6258 74.3075 59.2036 73.5502C55.9939 72.7904 52.8894 70.4863 49.8902 66.6379C49.3173 65.7136 48.888 64.7078 48.6169 63.6547C48.4231 62.9287 48.3013 62.1853 48.2531 61.4355C48.2046 61.2656 48.1561 61.0837 48.1076 60.8898C48.0591 60.623 48.0106 60.3562 47.9621 60.0894C47.8888 59.8169 47.8642 59.5337 47.8893 59.2526C47.8651 59.1799 47.8408 59.095 47.8165 58.998C47.7909 58.8973 47.7543 58.7997 47.7074 58.7069V58.4523C47.7317 57.5549 47.7195 56.6454 47.671 55.7237C47.6699 55.0783 47.6213 54.4339 47.5255 53.7956C47.4285 53.5288 47.3436 53.262 47.2708 52.9952C47.1981 52.8012 47.1374 52.6193 47.0889 52.4495C47.0162 52.2555 46.9555 52.0736 46.907 51.9038C46.9078 51.7213 46.8956 51.5389 46.8707 51.3581C46.8221 51.0913 46.7858 50.8124 46.7615 50.5213C46.7407 50.243 46.6666 49.9713 46.5432 49.721C45.7138 45.6055 44.5457 41.5657 43.0507 37.6427C41.7016 34.1362 39.8379 30.8502 37.5209 27.8927L37.3754 27.6017C37.3322 27.5139 37.2836 27.4288 37.2298 27.347C37.1055 27.1491 36.959 26.9661 36.7933 26.8013C36.4969 25.6879 35.8764 24.6876 35.0106 23.9273C34.0114 22.9639 33.2299 21.7979 32.7187 20.5075C32.6515 20.3896 32.5907 20.2682 32.5368 20.1437C32.4462 19.8189 32.3613 19.4915 32.2821 19.1614C32.1325 18.5137 31.9255 17.8806 31.6636 17.2696C31.5925 16.7409 31.483 16.2181 31.3362 15.7053C31.3237 15.6572 31.3116 15.6087 31.2998 15.5598C31.2999 15.5105 31.2999 15.462 31.2998 15.4142C31.3241 15.1474 31.3605 14.8806 31.409 14.6139V14.5411C31.4332 14.4198 31.4575 14.3107 31.4817 14.2137C31.5002 14.1153 31.5245 14.0181 31.5545 13.9226C31.5526 13.8324 31.5779 13.7436 31.6273 13.668C31.7742 13.2286 31.9824 12.8122 32.2457 12.431C32.2913 12.3672 32.3167 12.2912 32.3185 12.2128L32.3912 12.14C32.4591 12.0977 32.5104 12.0335 32.5368 11.9581L32.6095 11.8126C32.6104 11.7986 32.6141 11.785 32.6203 11.7725C32.6266 11.76 32.6353 11.7489 32.6459 11.7398C32.9854 11.4003 33.325 11.0728 33.6646 10.7575C34.0526 10.3937 34.4528 10.0299 34.8651 9.66613C35.5442 9.05976 36.2597 8.47767 37.0116 7.91987C37.8592 7.50804 38.7345 7.15551 39.631 6.86483C41.0251 6.45071 42.4696 6.23036 43.9238 6.20999C43.9562 6.18021 43.993 6.15566 44.033 6.13722L44.1057 6.06446C44.1381 6.0347 44.175 6.01016 44.2149 5.9917V5.95532C42.6385 6.01272 41.0693 6.19519 39.5218 6.50103H39.1216C37.9155 6.74948 36.7431 7.14027 35.6291 7.6652C34.1011 8.36856 32.5974 9.13255 31.1179 9.95717C31.0982 9.95565 31.0784 9.95808 31.0597 9.96433C31.0409 9.97058 31.0236 9.98051 31.0088 9.99355Z" fill="#0A4D2E"/>
<path d="M14.5648 26.8378C13.3258 28.629 12.7004 30.7733 12.7821 32.9497C12.7821 39.571 14.395 44.7976 17.6207 48.6297C20.8707 52.5103 25.3819 54.4506 31.1542 54.4506C41.9228 54.4505 50.4359 52.5466 56.6933 48.7388C62.4657 45.2221 65.3518 40.7715 65.3518 35.3872C65.3518 32.4282 63.8845 29.0934 60.9498 25.3826C58.5908 22.3833 56.0199 20.4187 53.2372 19.489C53.0531 19.4788 52.8591 19.4667 52.6551 19.4526C50.8093 19.3286 48.9555 19.4017 47.1253 19.6709C44.0785 20.6485 40.3919 21.7035 36.0656 22.836C30.5845 24.3078 25.9156 24.9506 22.0591 24.7641C18.2027 24.5725 15.7046 25.2638 14.5648 26.8378ZM19.367 30.8033C19.9916 30.3041 21.3256 30.1222 23.3688 30.2576C23.6785 30.2765 24.0059 30.2886 24.3511 30.2939C24.447 30.2944 24.5319 30.2944 24.6058 30.2939L28.3893 30.0757C29.9605 29.9508 31.7795 29.7447 33.8464 29.4572C35.2261 29.2321 36.5843 28.9653 37.921 28.6568C38.5273 28.5113 41.5348 27.4078 46.9434 25.3462C47.4583 25.1394 47.9955 24.9929 48.5441 24.9096C49.6299 24.774 50.7248 24.7253 51.8183 24.7641C53.3492 24.8097 55.1803 26.5923 57.3118 30.112C58.3591 31.7815 59.1558 33.5956 59.6765 35.4963C59.7947 36.2069 59.7947 36.9322 59.6765 37.6428C59.6267 38.1361 59.5293 38.6235 59.3855 39.098C59.0479 40.3795 57.5442 41.956 54.8743 43.8275C54.7377 43.9481 54.5917 44.0576 54.4377 44.1549C51.5657 46.1415 46.6543 47.4391 39.7036 48.0476C39.6554 48.055 39.6063 48.055 39.5581 48.0476C39.499 48.0665 39.438 48.0787 39.3762 48.084L37.6663 48.1931C37.6077 48.2136 37.5465 48.2259 37.4844 48.2295C31.4976 48.7046 27.8959 48.7895 26.6795 48.4842C25.5607 48.2751 24.5326 47.7293 23.7326 46.9198C23.0814 46.2165 22.5115 45.598 22.0228 45.0644C21.3133 44.203 20.7258 43.2482 20.2765 42.2267C19.786 40.8904 19.4088 39.5153 19.1487 38.1157C18.6879 36.1269 18.4575 35.0477 18.4575 34.8779C18.4587 32.6684 18.7619 31.3102 19.367 30.8032L19.367 30.8033Z" fill="#091628"/>
<path d="M59.6766 37.6428C59.7948 36.9322 59.7948 36.207 59.6766 35.4964C59.1559 33.5956 58.3591 31.7816 57.3119 30.1121C55.1803 26.5924 53.3492 24.8097 51.8184 24.7641C50.7249 24.7253 49.63 24.774 48.5442 24.9097C47.9955 24.9929 47.4584 25.1394 46.9434 25.3462C41.5348 27.4078 38.5274 28.5113 37.9211 28.6569C36.5844 28.9653 35.2262 29.2321 33.8465 29.4572C31.7796 29.7446 29.9606 29.9508 28.3894 30.0757C28.5478 30.0778 28.7061 30.0656 28.8624 30.0393C28.7822 30.1063 28.6971 30.1671 28.6077 30.2212C28.5172 30.2427 28.431 30.2796 28.353 30.3304C27.968 30.5644 27.6136 30.8454 27.298 31.1671C26.957 31.7608 26.665 32.3813 26.4249 33.0225C26.1894 33.8254 26.079 34.6598 26.0975 35.4964C26.041 37.1562 26.3906 38.8047 27.1161 40.2986C28.2803 42.4572 30.4025 43.9609 33.4827 44.8098C36.6425 45.2872 39.864 45.1638 42.978 44.446C47.3968 43.434 51.7001 41.9711 55.8203 40.0803C56.2811 39.862 56.7419 39.6316 57.2027 39.3891C58.0997 38.917 58.9314 38.3299 59.6766 37.6428ZM48.5806 26.0011C48.6787 26.0009 48.7764 25.9887 48.8716 25.9647C49.3914 25.8724 49.9252 25.8962 50.4347 26.0346C50.9442 26.173 51.4167 26.4225 51.8184 26.7651C52.1006 26.9824 52.3338 27.2567 52.5031 27.5701C52.6723 27.8835 52.7737 28.229 52.8007 28.5841V28.7296C52.7773 28.7746 52.7649 28.8244 52.7643 28.8751C52.7644 28.9236 52.7644 28.96 52.7643 28.9843C52.7644 29.0328 52.7644 29.0813 52.7643 29.1298L52.6915 29.2753C52.6675 29.372 52.6171 29.4602 52.546 29.53C52.4976 29.627 52.4491 29.724 52.4005 29.821C52.3277 29.918 52.2671 30.0029 52.2186 30.0757C52.1747 30.1181 52.1378 30.1672 52.1095 30.2212C51.7356 30.6018 51.2523 30.8561 50.727 30.9488C49.6113 31.1671 48.4957 31.3976 47.38 31.64C44.1384 32.9856 40.5892 33.4135 37.1207 32.877C36.9208 32.8642 36.7306 32.7861 36.5794 32.6546C36.4282 32.5231 36.3244 32.3456 36.284 32.1494V31.8583C36.2606 31.8134 36.2481 31.7635 36.2476 31.7128V31.3126C36.2481 31.2619 36.2606 31.2121 36.284 31.1671V31.058C36.3074 31.013 36.3198 30.9631 36.3204 30.9124L36.3931 30.7669C36.3937 30.7162 36.4061 30.6664 36.4295 30.6214C36.477 30.5982 36.5154 30.5598 36.5386 30.5123C36.5826 30.4699 36.6194 30.4208 36.6478 30.3667L36.7933 30.2212C38.8429 29.8292 40.8351 29.1814 42.7233 28.2931C43.7799 27.8024 44.8606 27.3653 45.9612 26.9834L46.325 26.7651C46.7565 26.5244 47.2229 26.3526 47.7074 26.2557C47.9985 26.183 48.2895 26.0981 48.5806 26.0011Z" fill="#90C3D0"/>
<path d="M48.8716 25.9648C48.7764 25.9888 48.6787 26.001 48.5805 26.0012C48.2895 26.0982 47.9984 26.1831 47.7074 26.2558C47.2229 26.3527 46.7564 26.5245 46.3249 26.7652L45.9611 26.9835C44.8606 27.3654 43.7799 27.8025 42.7233 28.2932C40.8351 29.1815 38.8428 29.8293 36.7933 30.2213L36.6477 30.3668C36.6194 30.4209 36.5825 30.47 36.5386 30.5124C36.5154 30.5599 36.477 30.5983 36.4295 30.6215C36.4061 30.6665 36.3936 30.7163 36.3931 30.767L36.3203 30.9125C36.3198 30.9632 36.3073 31.0131 36.2839 31.0581V31.1672C36.2605 31.2122 36.2481 31.262 36.2476 31.3127V31.7129C36.2481 31.7636 36.2605 31.8135 36.2839 31.8584V32.1495C36.3244 32.3457 36.4282 32.5232 36.5794 32.6547C36.7305 32.7862 36.9207 32.8643 37.1207 32.8771C40.5892 33.4136 44.1384 32.9857 47.38 31.6402C48.4957 31.3976 49.6113 31.1672 50.727 30.9489C51.2523 30.8562 51.7356 30.6019 52.1094 30.2213C52.1378 30.1673 52.1746 30.1182 52.2186 30.0758C52.267 30.003 52.3276 29.9181 52.4005 29.8211C52.4489 29.7241 52.4974 29.6271 52.546 29.5301C52.6171 29.4603 52.6675 29.3721 52.6915 29.2754L52.7643 29.1299C52.7643 29.0814 52.7643 29.0329 52.7643 28.9844C52.7643 28.9601 52.7643 28.9237 52.7643 28.8752C52.7648 28.8245 52.7773 28.7747 52.8007 28.7297V28.5842C52.7737 28.2291 52.6723 27.8836 52.503 27.5702C52.3338 27.2568 52.1005 26.9825 51.8184 26.7652C51.4167 26.4226 50.9442 26.1731 50.4347 26.0347C49.9252 25.8963 49.3914 25.8725 48.8716 25.9648Z" fill="white"/>
<path d="M23.3689 30.2576C21.3256 30.1222 19.9917 30.3041 19.367 30.8033C18.762 31.3102 18.4588 32.6684 18.4575 34.8779C18.4575 35.0477 18.6879 36.127 19.1487 38.1158C19.4088 39.5153 19.7861 40.8904 20.2765 42.2268C20.7258 43.2482 21.3134 44.2031 22.0228 45.0644C22.5114 45.598 23.0814 46.2165 23.7327 46.9198C24.5326 47.7293 25.5608 48.2751 26.6795 48.4842C27.896 48.7895 31.4976 48.7046 37.4845 48.2295C37.5465 48.2259 37.6077 48.2136 37.6664 48.1931L39.3763 48.084C39.4381 48.0787 39.4991 48.0665 39.5582 48.0476C39.6064 48.055 39.6555 48.055 39.7037 48.0476C46.6543 47.4391 51.5657 46.1416 54.4378 44.1549C54.5918 44.0576 54.7378 43.9481 54.8743 43.8275C57.5442 41.9561 59.048 40.3796 59.3855 39.098C59.5293 38.6235 59.6268 38.1362 59.6765 37.6428C58.9313 38.3299 58.0997 38.917 57.2027 39.3891C56.7419 39.6316 56.2811 39.8621 55.8202 40.0803C51.7001 41.9711 47.3968 43.434 42.9779 44.446C39.8639 45.1638 36.6424 45.2872 33.4826 44.8098C30.4024 43.9609 28.2802 42.4572 27.1161 40.2986C26.3906 38.8047 26.0409 37.1562 26.0974 35.4964C26.0789 34.6598 26.1894 33.8254 26.4248 33.0225C26.6649 32.3813 26.9569 31.7608 27.298 31.1671C27.6135 30.8454 27.9679 30.5644 28.353 30.3304C28.431 30.2796 28.5171 30.2427 28.6077 30.2212C28.697 30.1671 28.7822 30.1063 28.8623 30.0393C28.7061 30.0656 28.5478 30.0778 28.3894 30.0757L24.6058 30.294C24.5319 30.2945 24.447 30.2945 24.3511 30.294C24.006 30.2887 23.6786 30.2766 23.3689 30.2576Z" fill="#4E7A8D"/>
<path d="M26.1174 95.2142C26.0475 96.2339 26.1014 97.2584 26.278 98.2651C26.5154 99.1845 26.9696 100.034 27.6025 100.742C28.3248 101.651 30.0104 102.919 32.6593 104.546C33.9807 105.352 35.4144 105.956 36.9135 106.341C37.8045 106.579 38.7205 106.712 39.6426 106.736C42.7462 106.736 45.2612 106.018 47.1877 104.582C47.8568 104.056 48.4628 103.453 48.9937 102.788C49.7227 101.82 50.3168 100.757 50.7596 99.629C50.6793 99.7487 50.5856 99.8803 50.4787 100.024C50.3532 100.113 50.2326 100.209 50.1175 100.311C49.6781 100.685 49.1751 100.977 48.6325 101.172C48.2311 101.34 47.8432 101.519 47.4686 101.711C47.0138 101.711 46.5723 101.711 46.1442 101.711C45.3748 101.468 44.5805 101.311 43.7763 101.244C43.4159 101.216 43.0696 101.092 42.7729 100.885L42.6927 100.742C42.5297 100.524 42.325 100.341 42.0907 100.203C41.7768 100.02 41.4926 99.7901 41.2479 99.5213C41.197 99.4997 41.1546 99.4618 41.1275 99.4136C41.1019 99.3701 41.0881 99.3206 41.0873 99.2701C41.0666 99.2301 41.0394 99.1937 41.007 99.1624L40.9268 99.0188C40.9012 98.9753 40.8874 98.9258 40.8867 98.8753V97.9421C40.9919 97.7793 41.0604 97.5956 41.0873 97.4037V96.1833L41.1676 95.8962C41.1943 95.7526 41.2211 95.621 41.2479 95.5014C41.2725 95.4198 41.286 95.3353 41.288 95.2501V95.1066C41.395 94.8433 41.4887 94.5801 41.5689 94.3169C41.9643 93.1101 42.4751 91.9442 43.094 90.8353C43.4158 90.2601 43.7779 89.7083 44.1776 89.1843C44.4987 88.9929 44.8064 88.7895 45.1007 88.5741C45.4947 88.317 45.8582 88.0159 46.1843 87.6768C46.2647 87.6048 46.3326 87.5199 46.385 87.4255C46.7456 87.1973 47.0818 86.9327 47.3883 86.6359C47.7629 86.2531 48.1643 85.8822 48.5924 85.5232C48.806 85.3323 48.9948 85.1152 49.1542 84.8772C49.407 84.6767 49.6359 84.4479 49.8365 84.1952C50.4515 83.43 51.108 82.6991 51.8031 82.0058C52.1776 81.6469 52.5522 81.2999 52.9268 80.9649C54.2142 80.0057 55.5541 79.119 56.9402 78.3088C58.4118 77.4713 59.9101 76.6937 61.4351 75.9758C63.8844 74.814 66.5208 74.0969 69.2211 73.8582C69.3493 73.9504 69.4834 74.0344 69.6224 74.1094L69.7027 74.253C69.7168 74.267 69.7277 74.2838 69.7346 74.3024C69.7415 74.321 69.7444 74.3409 69.7428 74.3607C69.6358 74.8871 69.5288 75.4255 69.4218 75.9758C69.3685 76.3323 69.3416 76.6922 69.3415 77.0526C69.3416 77.268 69.3416 77.4714 69.3415 77.6628C69.7161 77.3278 70.1442 76.9689 70.6258 76.586C71.1691 76.1406 73.0314 75.3295 72.7654 74.4067C72.5259 74.4885 72.2953 74.5942 72.0771 74.7223C71.8578 74.8507 71.6108 74.924 71.357 74.936C71.2302 74.9399 71.1049 74.9073 70.9961 74.8421C70.8872 74.777 70.7993 74.682 70.7428 74.5684C70.4513 73.8514 71.6795 73.2958 72.1123 72.992C72.3159 72.8492 74.2016 71.421 74.3181 71.5252L74.2779 71.4893C73.8983 71.3442 73.5095 71.2243 73.1141 71.1303C72.8511 70.9883 72.5662 70.8913 72.2713 70.8432C69.997 70.5082 67.7495 70.1852 65.5288 69.8741C63.9169 69.6341 62.2767 69.6583 60.6726 69.9459C60.4035 69.9458 60.1348 69.9218 59.8699 69.8741C59.7926 69.8624 59.7218 69.8243 59.6693 69.7664C58.5456 68.0196 56.7529 67.2659 54.2914 67.5052C52.8238 67.673 51.3374 67.5511 49.9168 67.1463C49.8699 66.9715 49.8025 66.8029 49.7161 66.6438C49.6583 66.5421 49.5911 66.446 49.5154 66.3567L49.395 66.2132C49.3756 66.184 49.3488 66.1481 49.3147 66.1055C48.4602 66.4731 47.6408 66.9176 46.8666 67.4335C45.3404 68.4416 43.9156 69.5956 42.6124 70.8791C42.3662 71.1194 42.112 71.3467 41.8499 71.5611L41.6893 71.7046C41.6522 71.7333 41.6118 71.7574 41.5689 71.7765L41.1676 72.0995C37.4935 75.1758 34.3246 78.8091 31.7763 82.8673C28.6993 87.5572 27.0003 90.4645 26.6793 91.5891C26.3234 92.7652 26.1343 93.9855 26.1174 95.2142Z" fill="#0A4D2E"/>
<path d="M46.7467 86.3999C46.3824 86.7149 45.9877 86.9929 45.5684 87.2299C45.5054 87.3307 45.4257 87.42 45.3328 87.494C44.9446 87.8544 44.5178 88.1707 44.0602 88.4372C43.7145 88.6636 43.3531 88.8774 42.9761 89.0787C42.5098 89.6251 42.0845 90.2052 41.7035 90.8142C40.9819 91.9691 40.3816 93.1955 39.9124 94.4739C39.8182 94.7506 39.7082 95.0273 39.5825 95.304V95.4549C39.5801 95.5448 39.5642 95.6338 39.5354 95.7191C39.504 95.8448 39.4726 95.9832 39.4411 96.1341L39.3469 96.4359V97.7187C39.314 97.9233 39.2333 98.1172 39.1112 98.2846V99.2656C39.1122 99.3193 39.1286 99.3717 39.1583 99.4165C39.1898 99.4668 39.2212 99.517 39.2526 99.5674C39.29 99.5997 39.3219 99.6379 39.3469 99.6806C39.3479 99.7344 39.3642 99.7867 39.394 99.8315C39.4276 99.8836 39.4772 99.9233 39.5354 99.9447C39.8282 100.231 40.1618 100.473 40.5252 100.662C40.7954 100.802 41.0356 100.995 41.2322 101.227L41.3264 101.378C41.6827 101.598 42.0871 101.728 42.5047 101.756C43.4458 101.825 44.3775 101.99 45.2856 102.246C45.7884 102.246 46.3069 102.246 46.841 102.246C47.2809 102.045 47.7365 101.856 48.2078 101.68C48.8361 101.479 49.4257 101.173 49.9517 100.775C50.0878 100.667 50.2293 100.566 50.3759 100.473C50.5017 100.322 50.6116 100.184 50.7058 100.058C51.6798 97.8189 52.3457 95.4582 52.6854 93.0402C52.8292 91.7556 53.336 90.5385 54.1466 89.5314C55.5291 88.2989 56.896 87.0665 58.2471 85.834C66.6681 80.9794 71.2872 78.1497 72.1041 77.3449C72.2385 77.2114 72.3801 77.0855 72.5283 76.9676C72.5284 76.7663 72.5284 76.5525 72.5283 76.3262C72.5285 75.9469 72.56 75.5683 72.6226 75.1943C72.7482 74.6158 72.8739 74.0499 72.9996 73.4965C73.0012 73.4752 72.9977 73.4539 72.9895 73.4343C72.9813 73.4146 72.9686 73.3972 72.9525 73.3833L72.8582 73.2324C72.6959 73.154 72.5385 73.0658 72.3869 72.9683C69.2391 73.2135 66.1514 73.9652 63.2431 75.1943C61.4521 75.9489 59.6924 76.7664 57.9643 77.6467C56.3449 78.4933 54.7716 79.4253 53.251 80.4387C52.8111 80.7908 52.3712 81.1555 51.9313 81.5328C51.1197 82.2569 50.3487 83.0253 49.6218 83.8343C49.3828 84.1029 49.114 84.3434 48.8205 84.5512C48.6302 84.8046 48.4085 85.0327 48.1607 85.2303C47.658 85.6075 47.1867 85.9973 46.7467 86.3999Z" fill="#11802D"/>
<path d="M27.0195 97.8479C26.8529 96.8679 26.802 95.8717 26.8681 94.8798C26.8838 93.6856 27.0621 92.4991 27.3981 91.3531C27.7009 90.259 29.3036 87.4306 32.2061 82.868C34.5959 78.9364 37.5849 75.402 41.0651 72.3926L41.4437 72.0783C41.4842 72.0597 41.5224 72.0362 41.5573 72.0084L41.7087 71.8688C41.956 71.6602 42.1957 71.4391 42.428 71.2053C43.6533 69.96 44.9974 68.8373 46.4411 67.8532C47.1694 67.3524 47.9425 66.9199 48.7504 66.5612L48.5611 66.2819C48.2835 66.1189 47.9932 65.956 47.6903 65.793C47.2944 65.5852 46.8496 65.4886 46.4031 65.5136C45.4285 65.6443 44.4662 65.8545 43.5259 66.1422C38.3003 67.5847 33.6632 70.6397 30.2753 74.8717C26.7671 79.8068 24.3189 83.8922 22.9308 87.128C22.2771 88.5861 21.8188 90.1241 21.5678 91.7023C21.1803 93.6379 20.9273 95.598 20.8107 97.5685C20.8107 100.874 22.7162 103.982 26.5273 106.892C30.7114 110.073 35.8479 111.746 41.1029 111.641C44.469 111.719 47.7633 110.661 50.4541 108.638C53.5585 106.263 55.4135 102.806 56.0193 98.2669C56.1108 97.7124 56.2372 97.1642 56.3979 96.6257C56.5998 95.8342 56.7134 95.357 56.7386 95.1941C56.9336 94.2101 57.2649 93.2581 57.7229 92.3657C58.0258 91.7372 59.048 90.9108 60.7895 89.8865C63.4901 88.3036 65.3452 87.1513 66.3547 86.4296C70.0145 83.7991 72.4879 81.9135 73.7751 80.7729C76.4756 78.3751 77.8385 76.4081 77.8638 74.8717C77.889 74.6389 77.9143 74.3945 77.9395 74.1384C77.8637 73.8824 77.8006 73.6263 77.7502 73.3702C77.6801 73.0795 77.5512 72.8062 77.3716 72.5671C77.2454 72.4042 77.1192 72.2296 76.993 72.0433C76.6993 71.8846 76.3958 71.7446 76.0844 71.6243C76.0492 71.6054 76.0106 71.5935 75.9708 71.5894C75.4661 71.892 74.9613 72.2063 74.4565 72.5321C73.5846 73.1695 72.6742 73.7526 71.7306 74.2781C71.675 74.3049 71.6239 74.3402 71.5792 74.3828C71.3773 74.5458 71.188 74.7087 71.0113 74.8717L70.8978 74.9764C70.8165 75.0585 70.7408 75.14 70.6706 75.2209L68.8534 76.7573C68.3991 77.1298 67.9952 77.4789 67.6419 77.8049C67.522 77.9149 67.4082 78.0314 67.3012 78.154C66.6449 78.8989 62.9348 81.5178 56.1707 86.0106C55.0854 87.1513 53.9875 88.292 52.877 89.4326C52.2137 90.3964 51.8095 91.5147 51.7034 92.68C51.4349 94.9007 50.9011 97.0812 50.1133 99.1748C49.6975 100.269 49.1373 101.302 48.4475 102.248C47.9488 102.893 47.3771 103.479 46.7439 103.993C44.6728 105.469 42.1666 106.207 39.6265 106.089C38.756 106.065 37.8915 105.936 37.0521 105.704C35.6338 105.329 34.2808 104.74 33.0391 103.959C30.5403 102.376 28.9503 101.142 28.2689 100.257C27.6693 99.5631 27.2413 98.7378 27.0195 97.8479Z" fill="#052519"/>
</g>
<defs>
<clipPath id="clip0_1_1177">
<rect width="99.9922" height="111.641" fill="white" transform="translate(0.00390625)"/>
</clipPath>
</defs>
</svg>
